<svg xmlns="http://www.w3.org/2000/svg" xmlns:xlink="http://www.w3.org/1999/xlink" viewBox="0 0 887 1410.23"><defs><style>.cls-1,.cls-12{fill:none;}.cls-2{fill:#f2f2f2;}.cls-13,.cls-15,.cls-19,.cls-3,.cls-4,.cls-8{fill:#333;}.cls-4{font-size:72px;}.cls-13,.cls-15,.cls-19,.cls-4{font-family:Helvetica;}.cls-13,.cls-5{letter-spacing:0.02em;}.cls-6{font-size:60px;}.cls-7{font-size:53px;}.cls-8,.cls-9{fill-rule:evenodd;}.cls-9{fill:#0092af;}.cls-10{fill:#00adef;}.cls-11{clip-path:url(#clip-path);}.cls-12{stroke:#333;stroke-miterlimit:10;stroke-width:2px;}.cls-13{font-size:24px;}.cls-14{letter-spacing:0em;}.cls-15{font-size:23px;letter-spacing:0.02em;}.cls-16{letter-spacing:-0.05em;}.cls-17{letter-spacing:0em;}.cls-18{font-size:55px;letter-spacing:0.02em;}.cls-19{font-size:32px;letter-spacing:0.02em;}.cls-20{letter-spacing:0em;}</style><clipPath id="clip-path"><rect class="cls-1" x="48.23" y="1163.5" width="81.43" height="100"/></clipPath></defs><g id="Layer_2" data-name="Layer 2"><g id="Layer_1-2" data-name="Layer 1"><rect class="cls-2" width="887" height="1409" rx="29.33"/><path id="path2187" class="cls-3" d="M54.53,982.26a26.22,26.22,0,0,1,2.63-10,23.06,23.06,0,0,1,10-10.22c3-1.64,3.57-2.15,4.06-3.4.18-.43.19-.57.23-3.93,0-3.81.06-3.82.56-4.81.93-1.83,3.15-3.84,6.18-5.6.85-.5,1.22-.6,1.31-.37s0,12.2,0,13.38a14.77,14.77,0,0,1-2.57,8.07c-1.2,1.62-2.63,2.7-5.8,4.36A12.13,12.13,0,0,0,66.86,973a18.81,18.81,0,0,0-3.93,8.75,20.63,20.63,0,0,0,0,5.38,17.77,17.77,0,0,0,4.71,9.43,14,14,0,0,0,3.84,2.55,15.43,15.43,0,0,1,4.89,3.5c1.85,2.18,2.8,4.86,3.08,8.73.13,1.66.11,13.29,0,13.41s-.36.11-1.16-.35c-3.1-1.79-5.4-3.88-6.32-5.75-.48-1-.52-1.33-.52-4.72,0-3.19,0-3.56-.37-4.29-.44-.93-1.28-1.58-3.88-3a23.65,23.65,0,0,1-5.9-4.38,20.57,20.57,0,0,1-2.73-3.37,25.26,25.26,0,0,1-3.92-10.92C54.56,987,54.46,983.08,54.53,982.26Zm17.27-7.87a5.12,5.12,0,0,1,2.67-1.73c4.34-1.54,7.75-5.93,8.83-11.37.39-1.95.39-1.9.44-11.3l.05-8.9.18-.48a10.24,10.24,0,0,1,3-3.83c1.35-1.11,3.75-2.56,4-2.44.13,0,.13.95.11,14.34,0,14.17,0,14.3-.19,15.34-.91,5.48-3.43,9.33-7.39,11.3a13.29,13.29,0,0,1-6.35,1.3c-3,.07-4.45-.13-5.15-.7A1.21,1.21,0,0,1,71.8,974.39Zm0,18.81c.39-.88,1.56-1.16,4.78-1.16a19.35,19.35,0,0,1,4.13.29,12.13,12.13,0,0,1,6.59,3.79,16.37,16.37,0,0,1,3.73,8.54c.18,1,.18,1.16.2,15.33,0,13.54,0,14.28-.11,14.33a6.09,6.09,0,0,1-2.3-1.18c-2.55-1.66-4.06-3.26-4.77-5l-.21-.52-.05-8.9c0-9.54,0-9.41-.49-11.54a22.38,22.38,0,0,0-1.29-3.91,13.66,13.66,0,0,0-7.39-7.19,8.55,8.55,0,0,1-2.29-1.19A1.44,1.44,0,0,1,71.75,993.2Zm19.93-5.52c.09-.72.12-.77.39-.77s.25.06.41.37a11.65,11.65,0,0,0,2.59,3.31,9.43,9.43,0,0,0,4.06,2.11c.68.17.79.17,11.93.2l11.25,0v7.21H111.2c-7.37,0-11.36,0-11.88-.08a9.66,9.66,0,0,1-3-.83c-2.49-1.18-3.88-3.18-4.45-6.38A29.76,29.76,0,0,1,91.68,987.68Zm2.22-11.92a19.87,19.87,0,0,1,1.24-6.23l.25-.58H97.7c1.28,0,2.32,0,2.32,0s-.13.46-.29,1a31.26,31.26,0,0,0-1.19,5.79,13.52,13.52,0,0,0,.27,3.23c.33,1.28.9,2,1.73,2.27a2.49,2.49,0,0,0,2.59-.75c.87-.87,1.57-2.19,2.67-5.07a15.12,15.12,0,0,1,2.54-4.83,8,8,0,0,1,3.83-2.47,10.8,10.8,0,0,1,3.89-.09c3.63.75,5.85,3.64,6.57,8.53a19.35,19.35,0,0,1-.89,9.5l-.33.83h-2.35c-1.3,0-2.36,0-2.36,0s.14-.35.31-.75a23.36,23.36,0,0,0,1.26-3.94,7.3,7.3,0,0,0,.17-2.26c-.06-1.94-.45-3-1.36-3.89a2.32,2.32,0,0,0-3.52.27c-.84.91-1.38,2-2.31,4.78a14.33,14.33,0,0,1-3.21,5.74,6.36,6.36,0,0,1-4.8,2.08c-5.35,0-8.58-3.34-9.23-9.54A34.43,34.43,0,0,1,93.9,975.76Z"/><text class="cls-4" transform="translate(379.27 46.68) rotate(90)"><tspan class="cls-5">9732 2382 2378 6818</tspan><tspan class="cls-6"><tspan x="0" y="92">Isaksson</tspan><tspan x="0" y="164">Marcus Simon Gustav</tspan></tspan><tspan class="cls-7"><tspan x="0" y="249">1987-08-03</tspan></tspan></text><path id="Fill-1" class="cls-8" d="M820.47,242.51v9.28L721.7,292.67V293l98.77,40.54v9.28H714.31V336.3H812.4V336L714.31,296.1v-6.52l98.09-40.2V249H714.31v-6.53H820.47"/><path id="Fill-2" class="cls-8" d="M756.74,354.34c15.12,1.2,30.92,11,30.92,27.65,0,17.35-14.94,27.32-30.92,27.66V354.34Zm-5,60.81c21.81,1,40.71-9.62,40.71-33.16,0-22.67-20.44-33.66-41.23-33.32-21.13-.34-38.65,11.34-38.65,33.32,0,17.87,9.79,29.72,27.66,32.64v-5.49c-14.09-2.58-22.68-12.72-22.68-27,0-18.56,16.32-28,34.36-27.66v60.64Z"/><path id="Fill-3" class="cls-8" d="M767.05,480.6c13.57-1,20.44-11.86,20.44-25.6,0-18.9-17-29-34.36-29-20.61,0-35.73,9.62-35.73,29,0,14.09,9.79,24.39,23.71,26.28v5.5c-18.21-2.58-28.69-15.63-28.69-31.78,0-24.56,19.41-34.7,40.71-34.7S792.3,432.67,792.3,455c0,16.32-8.08,29.55-25.42,31.09V480.6"/><path id="Fill-4" class="cls-8" d="M756.74,498.12c15.12,1.2,30.92,11,30.92,27.65,0,17.35-14.94,27.32-30.92,27.66V498.12Zm-5,61c21.81,1,40.71-9.62,40.71-33.16,0-22.67-20.44-33.66-41.23-33.32-21.13-.34-38.65,11.34-38.65,33.32,0,17.87,9.79,29.72,27.66,32.64v-5.49c-14.09-2.58-22.68-12.72-22.68-27,0-18.56,16.32-28,34.36-27.66V559.1Z"/><path id="Fill-5" class="cls-8" d="M790.75,567v5.5H774.43v.34c11.51,3.78,18.21,15.29,18.21,27,0,26.63-21.47,26.8-30.92,26.8H714.48v-5.5h48.1c7.9,0,24.91-.86,24.91-21.47,0-16.84-13.23-27.14-32-27.14H714.31V567h76.44"/><path id="Fill-6" class="cls-8" d="M743.51,686.9c-4,0-25.94-2.75-25.94-28.17,0-13.23,7.39-19.75,16.67-19.75,11.51,0,16.14,7.55,17.69,20.61,1.55,10.82.86,22.85,6,27.31Zm29,5.67c15.81,0,19.93-13.23,19.93-26.45,0-17.7-8.42-28-25.25-28.69v5.5c13.23.68,20.44,9.62,20.44,23.19,0,17.17-11.51,21-14.94,21-12.54,0-14.09-1-16-25.93-1-12.54-4.81-27.66-22.5-27.66-16,0-21.48,11-21.48,25.25,0,14.43,7.91,24.56,17,28v.34h-3.95c-6.18,0-11.17,1.38-11.17,10.14a39.83,39.83,0,0,0,.52,4.46H720a22.46,22.46,0,0,1-.52-4.12c0-5,4.81-5,9.28-5Z"/><path id="Fill-7" class="cls-8" d="M785.77,735V718.51H732.52c-12.37,0-13.57,5.67-13.23,16.32h-5c-.69-11.51.86-22.5,18.21-21.82h53.25V699.1h5V713h23.71v5.5H790.75V735h-5"/><path id="Fill-8" class="cls-9" d="M764.3,168.64v23.19a1.72,1.72,0,0,0,1.72,1.72h54.45v-6.87h-49.3v-11h49.3v-6.87H766.19a3.51,3.51,0,0,1-1.89-.18"/><path id="Fill-9" class="cls-9" d="M820.47,197H766.19a5.22,5.22,0,0,1-5.33-5.16V70.9A5.17,5.17,0,0,1,766,65.75h45.69a5.06,5.06,0,0,1,5.15,5.15V136a5.2,5.2,0,0,1-5.32,5.15H766a5.1,5.1,0,0,1-1.72-.34v23a1.72,1.72,0,0,0,1.72,1.72H820.3v-6.87H771V147.86h40.71a12.1,12.1,0,0,0,12.2-12V70.9a12.1,12.1,0,0,0-12.2-12H766.19a12.1,12.1,0,0,0-12.2,12V191.83a12.21,12.21,0,0,0,12.2,12h54.28V197"/><path id="Fill-10" class="cls-9" d="M813.43,70.9a1.72,1.72,0,0,0-1.72-1.72H766.19a1.72,1.72,0,0,0-1.72,1.72v61.5h0v3.78a1.21,1.21,0,0,0,.52,1h0a1.55,1.55,0,0,0,1.2.51h45.52a1.72,1.72,0,0,0,1.72-1.71V70.9Zm-42.09,59.95v-55h35.22v55Z"/><g id="g2587"><g id="g2475"><path id="path2477" class="cls-10" d="M66.92,1213.55a31.36,31.36,0,1,0,9.19-22.16,31.1,31.1,0,0,0-9.19,22.16m31.37-26.41a26.43,26.43,0,1,1-18.7,7.74,26.26,26.26,0,0,1,18.7-7.74"/></g><g id="g2479"><path id="path2481" class="cls-10" d="M94,1199.15a4.68,4.68,0,0,0-4.69,5.06c0,2.86,1.59,4.9,3.47,4.9s3.59-1.14,4.22-4.43l.68-3.45c1-4.41,3.36-7.11,7.59-7.11s8.47,3.08,8.47,10.17c0,8-6.06,9.69-8.44,9.69v-5.47s4,.19,4-4.54c0-2.6-1.15-4.36-3.63-4.36-2.19,0-3,2-3.24,3.2l-1.1,5.12c-1,4-3.14,6.84-7.87,6.84-6.83,0-8.77-6.06-8.77-10.52,0-7.86,5.28-10.54,9.26-10.54v5.44"/></g><g id="g2483"><path id="path2485" class="cls-10" d="M90.11,1223.87v10.5H85.28v-16.14h27.9v5.64H90.11"/></g><g id="g2487"><g class="cls-11"><g id="g2489"><g id="g2495"><path id="path2497" class="cls-10" d="M102,1258.42c-1.23.1-2.46.15-3.7.15a45.08,45.08,0,1,1,0-90.15c1.24,0,2.47.06,3.7.16v-4.95c-1.23-.09-2.46-.13-3.7-.13a50,50,0,1,0,0,100c1.24,0,2.47,0,3.7-.13v-4.95"/></g></g></g></g><g id="g2499"><path id="path2501" class="cls-10" d="M102,1249.05a35,35,0,0,1-3.7.19,35.75,35.75,0,1,1,0-71.49c1.24,0,2.48.07,3.7.19V1173c-1.23-.11-2.46-.17-3.7-.17a40.67,40.67,0,1,0,0,81.34c1.24,0,2.47-.06,3.7-.17v-5"/></g></g><path class="cls-3" d="M31,1343.93V1083.07A18.08,18.08,0,0,1,49,1065h79.87A18.09,18.09,0,0,1,147,1083.07v260.86A18.09,18.09,0,0,1,128.88,1362H49A18.08,18.08,0,0,1,31,1343.93Zm114-260.86A16.09,16.09,0,0,0,128.88,1067H49A16.08,16.08,0,0,0,33,1083.07v260.86A16.08,16.08,0,0,0,49,1360h79.87A16.09,16.09,0,0,0,145,1343.93Z"/><path id="Fill-1-2" data-name="Fill-1" class="cls-8" d="M215.44,1096.1v4.45l-47.37,19.61v.16l47.37,19.45v4.44H164.52v-3.13h47v-.16l-47-19.11v-3.13l47-19.28v-.17h-47v-3.13h50.92"/><path id="Fill-2-2" data-name="Fill-2" class="cls-8" d="M184.87,1149.73c7.25.58,14.83,5.28,14.83,13.27,0,8.32-7.17,13.1-14.83,13.26v-26.53Zm-2.39,29.17c10.47.49,19.53-4.61,19.53-15.9,0-10.88-9.81-16.15-19.77-16-10.14-.17-18.54,5.43-18.54,16,0,8.57,4.7,14.25,13.26,15.65V1176c-6.75-1.24-10.87-6.1-10.87-12.94,0-8.9,7.83-13.43,16.48-13.26v29.08Z"/><path id="Fill-3-2" data-name="Fill-3" class="cls-8" d="M189.82,1210.29c6.5-.5,9.8-5.69,9.8-12.28,0-9.06-8.16-13.92-16.48-13.92-9.88,0-17.13,4.61-17.13,13.92,0,6.76,4.69,11.7,11.37,12.61v2.63c-8.74-1.23-13.76-7.49-13.76-15.24,0-11.78,9.31-16.64,19.52-16.64s18.79,5.93,18.79,16.64c0,7.83-3.88,14.17-12.2,14.91v-2.63"/><path id="Fill-4-2" data-name="Fill-4" class="cls-8" d="M184.87,1218.69c7.25.58,14.83,5.27,14.83,13.27,0,8.32-7.17,13.09-14.83,13.26v-26.53Zm-2.39,29.25c10.47.49,19.53-4.62,19.53-15.9,0-10.88-9.81-16.15-19.77-16-10.14-.16-18.54,5.44-18.54,16,0,8.57,4.7,14.25,13.26,15.65v-2.64c-6.75-1.23-10.87-6.09-10.87-12.93,0-8.9,7.83-13.43,16.48-13.26v29.08Z"/><path id="Fill-5-2" data-name="Fill-5" class="cls-8" d="M201.18,1251.73v2.63h-7.82v.17c5.52,1.81,8.73,7.33,8.73,12.93,0,12.77-10.3,12.86-14.83,12.86H164.61v-2.64h23.06c3.79,0,12-.41,12-10.3,0-8.07-6.34-13-15.32-13H164.52v-2.63h36.66"/><path id="Fill-6-2" data-name="Fill-6" class="cls-8" d="M178.53,1309.23c-1.9,0-12.44-1.32-12.44-13.51,0-6.34,3.54-9.47,8-9.47,5.52,0,7.74,3.62,8.49,9.88.74,5.19.41,11,2.88,13.1Zm13.92,2.72c7.58,0,9.56-6.34,9.56-12.69,0-8.48-4-13.42-12.11-13.75v2.63c6.34.33,9.8,4.62,9.8,11.12,0,8.24-5.52,10-7.17,10-6,0-6.75-.49-7.66-12.44-.49-6-2.3-13.26-10.79-13.26-7.66,0-10.3,5.27-10.3,12.11s3.79,11.78,8.16,13.43v.16H170c-3,0-5.35.66-5.35,4.87a17.33,17.33,0,0,0,.25,2.14h2.3a11.25,11.25,0,0,1-.25-2c0-2.39,2.31-2.39,4.45-2.39Z"/><path id="Fill-7-2" data-name="Fill-7" class="cls-8" d="M198.8,1332.3v-7.91H173.26c-5.94,0-6.51,2.72-6.35,7.83h-2.39c-.33-5.52.42-10.79,8.74-10.46H198.8v-6.68h2.38v6.68h11.37v2.63H201.18v7.91H198.8"/><path id="Fill-8-2" data-name="Fill-8" class="cls-9" d="M243.42,1275.44v38.1a2.83,2.83,0,0,0,2.82,2.83h89.47v-11.29h-81V1287h81v-11.28H246.52a5.8,5.8,0,0,1-3.1-.29"/><path id="Fill-9-2" data-name="Fill-9" class="cls-9" d="M335.71,1322H246.52a8.56,8.56,0,0,1-8.75-8.47V1114.86a8.5,8.5,0,0,1,8.47-8.47h75.07a8.32,8.32,0,0,1,8.47,8.47v107a8.56,8.56,0,0,1-8.75,8.47H246.24a8.16,8.16,0,0,1-2.82-.57v37.82a2.83,2.83,0,0,0,2.82,2.82h89.18v-11.29h-81v-17.78h66.88a19.87,19.87,0,0,0,20-19.75V1114.86a19.88,19.88,0,0,0-20-19.76H246.52a19.87,19.87,0,0,0-20,19.76v198.68a20.06,20.06,0,0,0,20,19.76h89.19V1322"/><path id="Fill-10-2" data-name="Fill-10" class="cls-9" d="M324.13,1114.86a2.83,2.83,0,0,0-2.82-2.82H246.52a2.83,2.83,0,0,0-2.82,2.82v101h0v6.21a2,2,0,0,0,.85,1.7h0a2.56,2.56,0,0,0,2,.84h74.79a2.82,2.82,0,0,0,2.82-2.82v-107ZM255,1213.35V1123h57.86v90.31Z"/><rect class="cls-12" x="146.98" y="1066.7" width="251" height="295" rx="17.07"/><text class="cls-13" transform="translate(362.96 1137.63) rotate(90)">VERIFIED B<tspan class="cls-14" x="138.16" y="0">Y</tspan></text><text class="cls-15" transform="translate(498.36 1071) rotate(90)">DISCOUNTS <tspan class="cls-16" x="146.44" y="0">V</tspan><tspan x="160.55" y="0">ALID</tspan><tspan class="cls-17" x="213.52" y="0"> </tspan><tspan x="219.96" y="0">THRU</tspan><tspan class="cls-18"><tspan x="-3.01" y="62">2023-09-29</tspan></tspan></text><text class="cls-19" transform="translate(825.09 1011.3) rotate(90)">STUDEN<tspan class="cls-20" x="135.4" y="0">T</tspan><tspan x="155.03" y="0" xml:space="preserve"> ID:  03874324</tspan><tspan x="155.71" y="42">Yrkeshögskola</tspan></text></g></g></svg>