<svg width="20" height="20" viewBox="0 0 20 20" fill="none" xmlns="http://www.w3.org/2000/svg">
<path fill-rule="evenodd" clip-rule="evenodd" d="M19.7112 8.23887L17.9149 9.99688L19.7112 11.7548C20.2464 12.2616 19.9972 13.1625 19.2946 13.3306L16.8473 13.9552L17.5372 16.3776C17.7321 17.0743 17.0753 17.7317 16.3786 17.5367L13.957 16.8466L13.3326 19.2946C13.1631 20.0038 12.2457 20.2382 11.7574 19.7114L10 17.9144L8.24254 19.7114C7.74922 20.2328 6.84074 20.0202 6.66734 19.2946L6.04297 16.8466L3.62133 17.5367C2.92476 17.7317 2.26773 17.0744 2.46269 16.3776L3.15258 13.9552L0.705311 13.3306C0.00296753 13.1626 -0.24672 12.2618 0.288749 11.7548L2.08504 9.99688L0.288749 8.23887C-0.246486 7.73219 0.002694 6.83118 0.70535 6.66317L3.15262 6.03856L2.46273 3.61611C2.26781 2.91947 2.92461 2.26201 3.62137 2.45708L6.04305 3.1472L6.66742 0.699118C6.83453 -0.000177965 7.74926 -0.239123 8.24262 0.2824L10 2.09259L11.7574 0.282361C12.2564 -0.245139 13.1674 0.00771268 13.3326 0.699079L13.957 3.14716L16.3786 2.45704C17.0752 2.26205 17.7322 2.91927 17.5373 3.61607L16.8474 6.03852L19.2946 6.66313C19.997 6.8311 20.2467 7.73196 19.7112 8.23887ZM10 7C10 8.10536 9.10536 9 8 9C6.89464 9 6 8.10536 6 7C6 5.89464 6.89464 5 8 5C9.10536 5 10 5.89464 10 7ZM8.85714 7C8.85714 6.52679 8.47321 6.14286 8 6.14286C7.52679 6.14286 7.14286 6.52679 7.14286 7C7.14286 7.47321 7.52679 7.85714 8 7.85714C8.47321 7.85714 8.85714 7.47321 8.85714 7ZM10 12.1429C10 11.0375 10.8946 10.1429 12 10.1429C13.1054 10.1429 14 11.0375 14 12.1429C14 13.2482 13.1054 14.1429 12 14.1429C10.8946 14.1429 10 13.2482 10 12.1429ZM11.1429 12.1429C11.1429 12.6161 11.5268 13 12 13C12.4732 13 12.8571 12.6161 12.8571 12.1429C12.8571 11.6696 12.4732 11.2857 12 11.2857C11.5268 11.2857 11.1429 11.6696 11.1429 12.1429ZM13.5696 5.00179L13.0054 5.00357C12.8661 5.00357 12.7357 5.07143 12.6554 5.18571L6.08393 13.4661C5.88393 13.75 6.0875 14.1411 6.43571 14.1411L7.03214 14.1393C7.10082 14.1393 7.16848 14.1227 7.2294 14.091C7.29032 14.0593 7.34271 14.0134 7.38214 13.9571L13.9214 5.67679C14.1214 5.39107 13.9161 5 13.5696 5.00179Z" fill="#222222"/>
</svg>
