<svg id="Layer_1" data-name="Layer 1" xmlns="http://www.w3.org/2000/svg" viewBox="0 0 512 512"><defs><style>.cls-1,.cls-2{fill:#222;}.cls-2{fill-rule:evenodd;}</style></defs><g id="icon-card-outlines"><g id="Rectangle"><path class="cls-1" d="M407.27,512H104.73a35,35,0,0,1-34.91-34.91V34.91A35,35,0,0,1,104.73,0H407.27a35,35,0,0,1,34.91,34.91V477.09A35,35,0,0,1,407.27,512ZM104.73,23.27A11.65,11.65,0,0,0,93.09,34.91V477.09a11.66,11.66,0,0,0,11.64,11.64H407.27a11.66,11.66,0,0,0,11.64-11.64V34.91a11.66,11.66,0,0,0-11.64-11.64Z"/></g><g id="Rectangle-2"><polygon class="cls-2" points="128 58.18 174.54 58.18 174.54 174.54 174.54 337.45 128 337.45 128 58.18"/></g><g id="Rectangle-4"><g id="path-1"><rect x="314.18" y="58.18" width="69.82" height="69.82"/></g><path class="cls-1" d="M384,128H314.18V58.18H384Zm-46.55-23.27h23.28V81.45H337.45Z"/></g><g id="Rectangle-2-2" data-name="Rectangle-2"><rect class="cls-1" x="197.82" y="58.18" width="23.27" height="279.27"/></g></g></svg>