<svg width="20" height="20" viewBox="0 0 20 20" fill="none" xmlns="http://www.w3.org/2000/svg">
<path d="M3.81185 6.16618H2.01701L1.66789 7.5H0.275879L2.31242 0.983073H3.51644L5.56641 7.5H4.16097L3.81185 6.16618ZM2.30347 5.06958H3.52091L2.91219 2.74658L2.30347 5.06958Z" fill="black"/>
<path d="M5.26204 14.8279C5.26204 15.7022 5.05466 16.381 4.63989 16.8644C4.22811 17.3478 3.65519 17.5895 2.92114 17.5895C2.19008 17.5895 1.61567 17.3508 1.19792 16.8734C0.780165 16.393 0.568305 15.7216 0.562337 14.8592V13.7447C0.562337 12.8495 0.769721 12.1513 1.18449 11.65C1.59926 11.1457 2.17516 10.8936 2.91219 10.8936C3.63729 10.8936 4.20871 11.1412 4.62646 11.6366C5.04422 12.1289 5.25608 12.8212 5.26204 13.7134V14.8279ZM3.94165 13.7358C3.94165 13.1479 3.8581 12.7108 3.691 12.4243C3.5239 12.1379 3.2643 11.9946 2.91219 11.9946C2.56307 11.9946 2.30496 12.1334 2.13786 12.4109C1.97076 12.6854 1.88422 13.1047 1.87826 13.6686V14.8279C1.87826 15.3978 1.9633 15.8185 2.13338 16.0901C2.30347 16.3586 2.56605 16.4929 2.92114 16.4929C3.2643 16.4929 3.51942 16.3616 3.68652 16.099C3.85362 15.8335 3.93867 15.4232 3.94165 14.8682V13.7358ZM1.19792 10.0028C1.19792 9.83873 1.2576 9.70296 1.37695 9.59554C1.49929 9.48514 1.647 9.42993 1.82007 9.42993C1.99314 9.42993 2.13935 9.48514 2.25871 9.59554C2.38105 9.70296 2.44222 9.83873 2.44222 10.0028C2.44222 10.164 2.38105 10.2998 2.25871 10.4102C2.13935 10.5176 1.99314 10.5713 1.82007 10.5713C1.647 10.5713 1.49929 10.5176 1.37695 10.4102C1.2576 10.2998 1.19792 10.164 1.19792 10.0028ZM3.38664 10.0028C3.38664 9.84172 3.44632 9.70744 3.56567 9.60002C3.68802 9.48961 3.83572 9.43441 4.00879 9.43441C4.18186 9.43441 4.32807 9.48961 4.44743 9.60002C4.56977 9.70744 4.63094 9.84172 4.63094 10.0028C4.63094 10.158 4.57275 10.2923 4.45638 10.4057C4.34299 10.5161 4.19379 10.5713 4.00879 10.5713C3.82378 10.5713 3.6731 10.5161 3.55672 10.4057C3.44333 10.2923 3.38664 10.158 3.38664 10.0028Z" fill="black"/>
<rect x="8.3335" y="3.33333" width="11.6667" height="2.5" rx="0.5" fill="black"/>
<rect x="8.3335" y="8.33333" width="10" height="2.5" rx="0.5" fill="black"/>
<rect x="8.3335" y="13.3333" width="8.33333" height="2.5" rx="0.5" fill="black"/>
</svg>
