<?xml version="1.0" encoding="utf-8"?>
<!-- Generator: Adobe Illustrator 24.1.0, SVG Export Plug-In . SVG Version: 6.00 Build 0)  -->
<svg version="1.2" baseProfile="tiny" id="Layer_1" xmlns="http://www.w3.org/2000/svg" xmlns:xlink="http://www.w3.org/1999/xlink"
	 x="0px" y="0px" viewBox="0 0 20 20" xml:space="preserve">
<g>
	<path fill="none" d="M10.7,10.1c-1,0-1.8,0.8-1.8,1.8c0,1,0.8,1.8,1.8,1.8s1.8-0.8,1.8-1.8C12.5,10.9,11.7,10.1,10.7,10.1z
		 M10.7,12.6c-0.4,0-0.8-0.3-0.8-0.8c0-0.4,0.3-0.8,0.8-0.8c0.4,0,0.8,0.3,0.8,0.8C11.5,12.3,11.2,12.6,10.7,12.6z"/>
	<path fill="none" d="M7.2,9.1c1,0,1.8-0.8,1.8-1.8S8.2,5.6,7.2,5.6c-1,0-1.8,0.8-1.8,1.8S6.3,9.1,7.2,9.1z M7.2,6.6
		C7.7,6.6,8,6.9,8,7.4c0,0.4-0.3,0.8-0.8,0.8c-0.4,0-0.8-0.3-0.8-0.8C6.5,6.9,6.8,6.6,7.2,6.6z"/>
	<path fill="none" d="M12.1,5.6l-0.5,0c-0.1,0-0.2,0.1-0.3,0.2L5.6,13c-0.2,0.2,0,0.6,0.3,0.6l0.5,0c0.1,0,0.1,0,0.2,0
		c0.1,0,0.1-0.1,0.1-0.1l5.7-7.3C12.6,6,12.4,5.6,12.1,5.6z"/>
	<circle cx="7.2" cy="7.4" r="0.8"/>
	<path d="M16.6,9.3c-2,0-3.7-1.7-3.7-3.7C12.9,5,13,4.5,13.3,4c0-0.1,0-0.2-0.1-0.2L12.5,4l-0.5-2.2C11.8,1.2,11,1,10.5,1.5L9,3.1
		L7.4,1.5C7,1,6.2,1.2,6.1,1.8L5.5,4L3.4,3.4c-0.6-0.2-1.2,0.4-1,1L3,6.5L0.8,7.1C0.2,7.2,0,8,0.5,8.5L2,10l-1.6,1.5
		C0,12,0.2,12.8,0.8,12.9L3,13.5l-0.6,2.1c-0.2,0.6,0.4,1.2,1,1L5.5,16l0.5,2.2c0.2,0.6,1,0.8,1.4,0.4L9,17l1.5,1.6
		c0.4,0.5,1.2,0.3,1.4-0.4l0.5-2.2l2.1,0.6c0.6,0.2,1.2-0.4,1-1L15,13.5l2.1-0.5c0.6-0.1,0.8-0.9,0.4-1.4L15.9,10L16.6,9.3
		C16.6,9.3,16.6,9.3,16.6,9.3z M7.2,5.6c1,0,1.8,0.8,1.8,1.8S8.2,9.1,7.2,9.1c-1,0-1.8-0.8-1.8-1.8S6.3,5.6,7.2,5.6z M6.7,13.5
		c0,0-0.1,0.1-0.1,0.1c-0.1,0-0.1,0-0.2,0l-0.5,0c-0.3,0-0.5-0.3-0.3-0.6l5.8-7.3c0.1-0.1,0.2-0.2,0.3-0.2l0.5,0
		c0.3,0,0.5,0.3,0.3,0.6L6.7,13.5z M10.7,13.6c-1,0-1.8-0.8-1.8-1.8c0-1,0.8-1.8,1.8-1.8s1.8,0.8,1.8,1.8
		C12.5,12.9,11.7,13.6,10.7,13.6z"/>
	<path d="M10.7,11.1c-0.4,0-0.8,0.3-0.8,0.8c0,0.4,0.3,0.8,0.8,0.8c0.4,0,0.8-0.3,0.8-0.8C11.5,11.5,11.2,11.1,10.7,11.1z"/>
	<path fill="#F6512E" d="M15.6,4.4L15,6.5l2.1,0.5C17.8,7.2,18,8,17.5,8.5l-0.3,0.3c1.5-0.3,2.6-1.6,2.6-3.1c0-1.8-1.4-3.2-3.2-3.2
		c-0.9,0-1.8,0.4-2.4,1.1l0.4-0.1C15.2,3.2,15.8,3.8,15.6,4.4z"/>
	<path fill="#F6512E" d="M16.6,8.8c0.2,0,0.4,0,0.6-0.1l0.3-0.3C18,8,17.8,7.2,17.2,7.1L15,6.5l0.6-2.1c0.2-0.6-0.4-1.2-1-1
		l-0.4,0.1c-0.5,0.6-0.8,1.3-0.8,2.1C13.4,7.4,14.8,8.8,16.6,8.8z"/>
</g>
</svg>
