<svg id="Layer_1" data-name="Layer 1" xmlns="http://www.w3.org/2000/svg" viewBox="0 0 512 512"><defs><style>.cls-1{fill:none;}.cls-2{fill:#222;}.cls-3{fill:#e65d3d;}</style></defs><path class="cls-1" d="M275.58,259.28a45.93,45.93,0,1,0,45.93,45.93A45.91,45.91,0,0,0,275.58,259.28Zm0,65.62a19.69,19.69,0,1,1,19.68-19.69A19.69,19.69,0,0,1,275.58,324.9Z"/><path class="cls-1" d="M183.72,233a45.93,45.93,0,1,0-45.93-45.93A45.91,45.91,0,0,0,183.72,233Zm0-65.62A19.69,19.69,0,1,1,164,187.11,19.69,19.69,0,0,1,183.72,167.42Z"/><path class="cls-1" d="M311.63,141.22l-13,0a9.83,9.83,0,0,0-8,4.18L139.72,335.6a9.84,9.84,0,0,0,8.08,15.5l13.69,0a9.82,9.82,0,0,0,8-4.19L319.7,156.72A9.84,9.84,0,0,0,311.63,141.22Z"/><circle class="cls-2" cx="183.72" cy="187.11" r="19.68"/><path class="cls-2" d="M428.65,237.87A96.66,96.66,0,0,1,342.12,98.05a3.18,3.18,0,0,0-3.7-4.52l-17.9,5.1L306.18,42.41c-3.79-15.88-24.71-21.69-36.17-9.57L229.65,74.41,189.29,32.84c-11.33-12-32.34-6.49-36.17,9.57L138.78,98.63,83.16,82.78c-16-4.48-31.08,10.62-26.6,26.61L72.4,165,16.2,179.37C.06,183.23-5.66,203.92,6.63,215.56l41.25,40.37L6.63,296.3c-12.3,11.64-6.56,32.33,9.57,36.19l56.2,14.34L56.56,402.46c-4.48,16,10.61,31.1,26.6,26.62l55.62-15.85,14.33,56.22c4,16.66,24.85,21.55,36.18,9.57l40.36-41.27L270,479c11.21,12.1,32.28,6.72,36.17-9.57l14.34-56.22,55.61,15.85c16,4.48,31.09-10.62,26.61-26.62L386.9,346.83l56.2-14.34c16.13-3.86,21.86-24.55,9.57-36.19l-41.26-40.37,18.49-18.09C429.48,237.84,429.07,237.87,428.65,237.87ZM183.72,141.18a45.93,45.93,0,1,1-45.93,45.93A45.91,45.91,0,0,1,183.72,141.18ZM169.53,346.87a9.82,9.82,0,0,1-8,4.19l-13.69,0a9.84,9.84,0,0,1-8.08-15.5L290.63,145.44a9.83,9.83,0,0,1,8-4.18l13,0a9.84,9.84,0,0,1,8.07,15.5Zm106,4.27a45.93,45.93,0,1,1,45.93-45.93A45.91,45.91,0,0,1,275.58,351.14Z"/><path class="cls-2" d="M275.58,285.53a19.69,19.69,0,1,0,19.68,19.68A19.68,19.68,0,0,0,275.58,285.53Z"/><path class="cls-3" d="M402.74,109.39,386.9,165l56.2,14.34c16.13,3.86,21.86,24.54,9.57,36.19l-7.48,7.31A83.35,83.35,0,1,0,366.71,85.46l9.42-2.68C392.13,78.3,407.22,93.39,402.74,109.39Z"/><path class="cls-3" d="M428.65,224.53a82.77,82.77,0,0,0,16.54-1.66l7.48-7.31c12.29-11.65,6.56-32.33-9.57-36.19L386.9,165l15.84-55.64c4.48-16-10.61-31.09-26.61-26.61l-9.42,2.68a83.3,83.3,0,0,0,61.94,139.07Z"/></svg>