<?xml version="1.0" encoding="utf-8"?>
<!-- Generator: Adobe Illustrator 24.1.0, SVG Export Plug-In . SVG Version: 6.00 Build 0)  -->
<svg version="1.1" id="Layer_1" xmlns:sketch="http://www.bohemiancoding.com/sketch/ns"
	 xmlns="http://www.w3.org/2000/svg" xmlns:xlink="http://www.w3.org/1999/xlink" x="0px" y="0px" viewBox="0 0 395 66"
	 style="enable-background:new 0 0 395 66;" xml:space="preserve">
<style type="text/css">
	.st0{fill-rule:evenodd;clip-rule:evenodd;fill:#FFFFFF;}
</style>
<path id="Fill-1" sketch:type="MSShapeGroup" class="st0" d="M107.9,2.8h5.4l23.8,57.5h0.2l23.6-57.5h5.4v61.8h-3.8V7.5h-0.2
	l-23.2,57.1h-3.8L111.9,7.5h-0.2v57.1h-3.8V2.8"/>
<path id="Fill-2" sketch:type="MSShapeGroup" class="st0" d="M173,39.9c0.7-8.8,6.4-18,16.1-18c10.1,0,15.9,8.7,16.1,18H173
	L173,39.9z M208.4,42.8c0.6-12.7-5.6-23.7-19.3-23.7c-13.2,0-19.6,11.9-19.4,24c-0.2,12.3,6.6,22.5,19.4,22.5
	c10.4,0,17.3-5.7,19-16.1h-3.2c-1.5,8.2-7.4,13.2-15.7,13.2c-10.8,0-16.3-9.5-16.1-20H208.4L208.4,42.8z"/>
<path id="Fill-3" sketch:type="MSShapeGroup" class="st0" d="M246.5,33.9c-0.6-7.9-6.9-11.9-14.9-11.9c-11,0-16.9,9.9-16.9,20
	c0,12,5.6,20.8,16.9,20.8c8.2,0,14.2-5.7,15.3-13.8h3.2c-1.5,10.6-9.1,16.7-18.5,16.7c-14.3,0-20.2-11.3-20.2-23.7
	c0-12.4,7.2-22.8,20.2-22.8c9.5,0,17.2,4.7,18.1,14.8H246.5"/>
<path id="Fill-4" sketch:type="MSShapeGroup" class="st0" d="M256.7,39.9c0.7-8.8,6.4-18,16.1-18c10.1,0,15.9,8.7,16.1,18H256.7
	L256.7,39.9z M292.2,42.8c0.6-12.7-5.6-23.7-19.3-23.7c-13.2,0-19.6,11.9-19.4,24c-0.2,12.3,6.6,22.5,19.4,22.5
	c10.4,0,17.3-5.7,19-16.1h-3.2c-1.5,8.2-7.4,13.2-15.7,13.2c-10.8,0-16.3-9.5-16.1-20H292.2L292.2,42.8z"/>
<path id="Fill-5" sketch:type="MSShapeGroup" class="st0" d="M296.8,20.1h3.2v9.5h0.2c2.2-6.7,8.9-10.6,15.7-10.6
	c15.5,0,15.6,12.5,15.6,18v27.5h-3.2V36.5c0-4.6-0.5-14.5-12.5-14.5c-9.8,0-15.8,7.7-15.8,18.6v24h-3.2V20.1"/>
<path id="Fill-6" sketch:type="MSShapeGroup" class="st0" d="M366.6,47.6c0,2.3-1.6,15.1-16.4,15.1c-7.7,0-11.5-4.3-11.5-9.7
	c0-6.7,4.4-9.4,12-10.3c6.3-0.9,13.3-0.5,15.9-3.5V47.6L366.6,47.6z M369.9,30.7c0-9.2-7.7-11.6-15.4-11.6
	c-10.3,0-16.3,4.9-16.7,14.7h3.2c0.4-7.7,5.6-11.9,13.5-11.9c10,0,12.2,6.7,12.2,8.7c0,7.3-0.6,8.2-15.1,9.3
	c-7.3,0.6-16.1,2.8-16.1,13.1c0,9.3,6.4,12.5,14.7,12.5c8.4,0,14.3-4.6,16.3-9.9h0.2v2.3c0,3.6,0.8,6.5,5.9,6.5
	c0.9,0,1.7-0.2,2.6-0.3v-2.8c-1,0.2-1.8,0.3-2.4,0.3c-2.9,0-2.9-2.8-2.9-5.4V30.7L369.9,30.7z"/>
<path id="Fill-7" sketch:type="MSShapeGroup" class="st0" d="M394.6,23h-9.6V54c0,7.2,3.3,7.9,9.5,7.7v2.9
	c-6.7,0.4-13.1-0.5-12.7-10.6V23h-8.1v-2.9h8.1V6.3h3.2v13.8h9.6V23"/>
<path id="Fill-8" sketch:type="MSShapeGroup" class="st0" d="M64.9,35.5h13.5c0.6,0,1-0.5,1-1V2.8h-4c0,0,0,23.8,0,28.7H69V2.8h-4
	l0,31.6C65.1,34.8,65,35.1,64.9,35.5"/>
<path id="Fill-9" sketch:type="MSShapeGroup" class="st0" d="M81.4,2.8v31.6c0,1.7-1.3,3.1-3,3.1c0,0-32.6,0-32.6,0H8
	c-1.7,0-3-1.4-3-3V7.9c0-1.7,1.3-3,3-3l37.9,0c1.7,0,3,1.4,3,3.1v26.5c0,0.4-0.1,0.7-0.2,1h13.4c0.6,0,1-0.5,1-1l0-31.6h-4v28.7
	h-6.3V7.9c0-3.9-3.1-7.1-7-7.1H8C4.1,0.8,1,4,1,7.9v26.5c0,3.9,3.1,7.1,7,7.1l70.4,0c3.8,0,7-3.2,7-7.1V2.8H81.4"/>
<path id="Fill-10" sketch:type="MSShapeGroup" class="st0" d="M8,6.9c-0.6,0-1,0.5-1,1v26.5c0,0.6,0.5,1,1,1h35.8v0h2.2
	c0.2,0,0.5-0.1,0.6-0.3c0,0,0,0,0,0c0.2-0.2,0.3-0.4,0.3-0.7h0V7.9c0-0.6-0.5-1-1-1L8,6.9L8,6.9z M42.9,31.4h-32V10.9h32V31.4
	L42.9,31.4z"/>
</svg>
