<?xml version="1.0" encoding="utf-8"?>
<!-- Generator: Adobe Illustrator 24.1.0, SVG Export Plug-In . SVG Version: 6.00 Build 0)  -->
<svg version="1.2" baseProfile="tiny" id="Layer_1" xmlns="http://www.w3.org/2000/svg" xmlns:xlink="http://www.w3.org/1999/xlink"
	 x="0px" y="0px" viewBox="0 0 20 20" xml:space="preserve">
<path d="M1.3,3.8c0-0.7,0.6-1.2,1.2-1.2h15c0.7,0,1.2,0.6,1.2,1.2S18.2,5,17.5,5h-15C1.8,5,1.3,4.4,1.3,3.8z M1.3,10
	c0-0.7,0.6-1.2,1.2-1.2h15c0.7,0,1.2,0.6,1.2,1.2c0,0.7-0.6,1.2-1.2,1.2h-15C1.8,11.2,1.3,10.7,1.3,10z M18.7,16.2
	c0,0.7-0.6,1.2-1.2,1.2h-15c-0.7,0-1.2-0.6-1.2-1.2c0-0.7,0.6-1.2,1.2-1.2h15C18.2,15,18.7,15.6,18.7,16.2z"/>
</svg>
