<svg id="Layer_1" data-name="Layer 1" xmlns="http://www.w3.org/2000/svg" viewBox="0 0 512 512"><path d="M91.79,175H45.2l-9.07,34.62H0L52.86,40.47H84.12l53.21,169.16H100.85ZM52.63,146.54h31.6l-15.8-60.3Z"/><path d="M129.43,399.85q0,34-16.15,52.86T68.67,471.53q-28.47,0-44.74-18.59T7.44,400.66V371.73q0-34.86,16.15-54.37t44.84-19.64q28.23,0,44.5,19.29t16.5,53.91ZM95.16,371.5q0-22.89-6.51-34T68.43,326.3q-13.59,0-20.1,10.81t-6.74,32.65v30.09q0,22.18,6.63,32.76t20.45,10.46q13.35,0,19.86-10.23t6.63-31.95ZM23.93,274.6A13.6,13.6,0,0,1,28.58,264a16.55,16.55,0,0,1,11.5-4.3A16.13,16.13,0,0,1,51.47,264a13.44,13.44,0,0,1,4.76,10.57,13.66,13.66,0,0,1-4.76,10.57,16.4,16.4,0,0,1-11.39,4.19,16.84,16.84,0,0,1-11.5-4.19A13.82,13.82,0,0,1,23.93,274.6Zm56.82,0a13.49,13.49,0,0,1,4.65-10.46,16.58,16.58,0,0,1,11.5-4.3,16.15,16.15,0,0,1,11.38,4.3,13.35,13.35,0,0,1,4.77,10.46,14.13,14.13,0,0,1-4.53,10.46q-4.42,4.29-11.62,4.3a16.39,16.39,0,0,1-11.74-4.3A14.31,14.31,0,0,1,80.75,274.6Z"/><rect x="209.16" y="101.47" width="302.84" height="64.89" rx="12.98"/><rect x="209.16" y="231.26" width="259.58" height="64.89" rx="12.98"/><rect x="209.16" y="361.05" width="216.31" height="64.89" rx="12.98"/></svg>