<svg id="Layer_1" data-name="Layer 1" xmlns="http://www.w3.org/2000/svg" viewBox="0 0 512 512"><defs><style>.cls-1,.cls-2{fill-rule:evenodd;}.cls-2{fill:#12a5c5;}</style></defs><path id="Fill-1" class="cls-1" d="M6,329h9.41L57,429.26h.35L98.45,329h9.42V436.76h-6.63V337.19h-.35L60.43,436.76H53.81L13,337.19h-.35v99.57H6V329"/><path id="Fill-2" class="cls-1" d="M119.55,393.69c1.22-15.34,11.16-31.39,28.07-31.39,17.62,0,27.73,15.17,28.08,31.39Zm61.73,5.06c1-22.15-9.77-41.33-33.66-41.33-23,0-34.17,20.75-33.83,41.85-.34,21.45,11.51,39.24,33.83,39.24,18.14,0,30.17-9.94,33.14-28.08h-5.58c-2.62,14.3-12.91,23-27.38,23-18.84,0-28.43-16.57-28.08-34.88h61.56Z"/><path id="Fill-3" class="cls-1" d="M247.72,383.23c-1.05-13.78-12-20.75-26-20.75-19.18,0-29.47,17.26-29.47,34.87,0,20.93,9.77,36.27,29.47,36.27,14.3,0,24.77-9.94,26.68-24.06H254c-2.61,18.48-15.86,29.12-32.26,29.12-24.93,0-35.22-19.7-35.22-41.33s12.56-39.76,35.22-39.76c16.57,0,30,8.2,31.57,25.81h-5.58"/><path id="Fill-4" class="cls-1" d="M265.5,393.69c1.22-15.34,11.16-31.39,28.08-31.39,17.61,0,27.72,15.17,28.07,31.39Zm61.91,5.06c1-22.15-9.77-41.33-33.66-41.33-23,0-34.18,20.75-33.83,41.85-.35,21.45,11.51,39.24,33.83,39.24,18.14,0,30.17-9.94,33.14-28.08H321.3c-2.61,14.3-12.9,23-27.37,23-18.84,0-28.43-16.57-28.08-34.88h61.56Z"/><path id="Fill-5" class="cls-1" d="M335.43,359.16H341v16.57h.35c3.83-11.68,15.52-18.48,27.38-18.48,27,0,27.2,21.79,27.2,31.38v48h-5.58V387.76c0-8-.87-25.28-21.8-25.28-17.09,0-27.55,13.42-27.55,32.43v41.85h-5.58v-77.6"/><path id="Fill-6" class="cls-1" d="M457.15,407.12c0,4-2.79,26.33-28.6,26.33-13.43,0-20.06-7.5-20.06-16.92,0-11.68,7.68-16.39,20.93-18,11-1.57,23.19-.87,27.73-6.1v14.65Zm5.75-29.47c0-16-13.43-20.23-26.85-20.23-18,0-28.43,8.54-29.13,25.63h5.59c.69-13.42,9.76-20.75,23.54-20.75,17.43,0,21.27,11.69,21.27,15.17,0,12.73-1.05,14.3-26.33,16.22-12.73,1.05-28.08,4.88-28.08,22.84,0,16.22,11.16,21.8,25.64,21.8,14.65,0,24.93-8,28.42-17.26h.35v4c0,6.28,1.4,11.33,10.29,11.33a41.07,41.07,0,0,0,4.53-.52V431a22.33,22.33,0,0,1-4.18.52c-5.06,0-5.06-4.88-5.06-9.42V377.65Z"/><path id="Fill-7" class="cls-1" d="M506,364.22H489.23v54.06c0,12.55,5.76,13.77,16.57,13.43v5.05c-11.69.7-22.85-.87-22.15-18.48V364.22H469.53v-5.06h14.12V335.1h5.58v24.06H506v5.06"/><path id="Fill-8" class="cls-2" d="M387.64,283.82h81.9a6.07,6.07,0,0,0,6.06-6.06V85.45H451.34V259.56H412.51V85.45H388.25v191.7c.6,2.43,0,4.25-.61,6.67"/><path id="Fill-9" class="cls-2" d="M487.73,85.45v191.7c0,10.31-7.88,18.8-18.19,18.8H42.46a18.24,18.24,0,0,1-18.19-18.19V116.39a17.87,17.87,0,0,1,18.19-18.2H272.38c10.31,0,18.2,8.49,18.2,18.81V277.76a17.86,17.86,0,0,1-1.22,6.06h81.29a6.08,6.08,0,0,0,6.07-6.06V86.06H352.45v174.1H314.24V116.39c0-23.66-18.81-43.07-42.47-43.07H42.46C18.81,73.32,0,92.73,0,116.39V277.15c0,23.66,18.81,43.07,42.46,43.07H469.54c23,0,42.46-19.41,42.46-43.07V85.45H487.73"/><path id="Fill-10" class="cls-2" d="M42.46,110.32a6.08,6.08,0,0,0-6.06,6.07V277.15a6.08,6.08,0,0,0,6.06,6.07H273c1.21,0,3-.61,3.64-1.82h0a5.54,5.54,0,0,0,1.82-4.25h0V116.39a6.09,6.09,0,0,0-6.07-6.07ZM254.18,259H60.06V134.59H254.18V259Z"/></svg>